<svg xmlns="http://www.w3.org/2000/svg" xmlns:xlink="http://www.w3.org/1999/xlink" version="1.1" width="256" height="256" viewBox="0 0 256 256" xml:space="preserve">

<defs>
</defs>
<g style="stroke: none; stroke-width: 0; stroke-dasharray: none; stroke-linecap: butt; stroke-linejoin: miter; stroke-miterlimit: 10; fill: none; fill-rule: nonzero; opacity: 1;" transform="translate(1.4065934065934016 1.4065934065934016) scale(2.81 2.81)" >
	<path d="M 44.704 48.292 c 0.329 0.729 0.675 1.447 1.035 2.152 c 7.298 14.279 20.812 23.517 35.704 25.901 c 0.906 0.145 1.219 1.288 0.533 1.897 c -4.139 3.677 -9.054 6.657 -14.65 8.669 c -20.633 7.417 -43.993 -1.574 -54.339 -20.905 C 0.664 42.979 10.529 14.733 33.934 4.161 c 4.269 -1.928 8.681 -3.127 13.098 -3.654 c 0.846 -0.101 1.458 0.815 1.001 1.534 c -6.954 10.923 -9.452 24.436 -6.331 37.486 l 8.643 4.322 c 0.797 0.399 0.775 1.544 -0.038 1.911 L 44.704 48.292 z" style="stroke: none; stroke-width: 1; stroke-dasharray: none; stroke-linecap: butt; stroke-linejoin: miter; stroke-miterlimit: 10; fill: rgb(255,255,255); fill-rule: nonzero; opacity: 1;" transform=" matrix(1 0 0 1 0 0) " stroke-linecap="round" />
	<path d="M 24.559 60.757 C 13.162 39.461 20.868 13.681 40.737 1.736 c -2.293 0.618 -4.569 1.416 -6.803 2.426 C 10.529 14.733 0.664 42.979 12.987 66.005 C 23.333 85.336 46.693 94.328 67.326 86.91 c 3.511 -1.262 6.754 -2.907 9.705 -4.865 C 56.912 88.449 34.586 79.493 24.559 60.757 z" style="stroke: none; stroke-width: 1; stroke-dasharray: none; stroke-linecap: butt; stroke-linejoin: miter; stroke-miterlimit: 10; fill: rgb(240,240,240); fill-rule: nonzero; opacity: 1;" transform=" matrix(1 0 0 1 0 0) " stroke-linecap="round" />
	<path d="M 52.449 90 c -16.25 0.001 -31.913 -8.828 -39.903 -23.759 c -5.99 -11.192 -7.05 -23.944 -2.985 -35.905 C 13.57 18.539 22.378 8.832 33.728 3.706 c 4.222 -1.907 8.678 -3.15 13.245 -3.695 c 0.597 -0.068 1.164 0.2 1.484 0.708 c 0.31 0.492 0.309 1.102 -0.002 1.59 c -6.995 10.986 -9.279 24.509 -6.267 37.102 c 0.131 0.813 1.368 2.352 8.27 3.951 l 0.11 0.04 c 0.543 0.271 0.873 0.817 0.861 1.424 c -0.012 0.607 -0.363 1.14 -0.917 1.39 l -5.145 2.324 c 0.262 0.566 0.535 1.125 0.816 1.676 c 6.963 13.624 20.174 23.207 35.338 25.634 c 0.605 0.098 1.088 0.524 1.261 1.115 c 0.175 0.602 -0.007 1.233 -0.476 1.65 c -4.318 3.835 -9.302 6.784 -14.813 8.766 C 62.564 89.154 57.477 90 52.449 90 z M 47.162 1 c -0.022 0 -0.047 0.001 -0.071 0.004 c -4.465 0.533 -8.822 1.748 -12.951 3.613 C 23.041 9.63 14.428 19.121 10.508 30.657 c -3.975 11.696 -2.938 24.166 2.92 35.111 c 10.23 19.12 33.333 28.005 53.729 20.672 c 5.39 -1.938 10.264 -4.821 14.486 -8.572 c 0.18 -0.159 0.246 -0.393 0.18 -0.623 c -0.031 -0.104 -0.137 -0.355 -0.459 -0.406 c -15.478 -2.479 -28.962 -12.26 -36.07 -26.167 c -0.364 -0.712 -0.713 -1.438 -1.045 -2.174 l -0.206 -0.456 l 6.058 -2.736 c 0.202 -0.091 0.325 -0.278 0.329 -0.499 c 0.004 -0.204 -0.094 -0.382 -0.265 -0.486 c -5.814 -1.354 -8.661 -2.853 -8.957 -4.715 c -3.067 -12.816 -0.736 -26.62 6.403 -37.833 C 47.76 1.54 47.66 1.331 47.61 1.252 C 47.571 1.189 47.43 1 47.162 1 z" style="stroke: none; stroke-width: 1; stroke-dasharray: none; stroke-linecap: butt; stroke-linejoin: miter; stroke-miterlimit: 10; fill: rgb(29,29,27); fill-rule: nonzero; opacity: 1;" transform=" matrix(1 0 0 1 0 0) " stroke-linecap="round" />
	<circle cx="36.49" cy="43.43" r="2" style="stroke: none; stroke-width: 1; stroke-dasharray: none; stroke-linecap: butt; stroke-linejoin: miter; stroke-miterlimit: 10; fill: rgb(29,29,27); fill-rule: nonzero; opacity: 1;" transform="  matrix(1 0 0 1 0 0) "/>
	<circle cx="36.202000000000005" cy="19.122" r="1.392" style="stroke: none; stroke-width: 1; stroke-dasharray: none; stroke-linecap: butt; stroke-linejoin: miter; stroke-miterlimit: 10; fill: rgb(240,240,240); fill-rule: nonzero; opacity: 1;" transform="  matrix(1 0 0 1 0 0) "/>
	<circle cx="33.342" cy="12.782" r="1.392" style="stroke: none; stroke-width: 1; stroke-dasharray: none; stroke-linecap: butt; stroke-linejoin: miter; stroke-miterlimit: 10; fill: rgb(240,240,240); fill-rule: nonzero; opacity: 1;" transform="  matrix(1 0 0 1 0 0) "/>
	<circle cx="39.802" cy="6.811999999999999" r="1.392" style="stroke: none; stroke-width: 1; stroke-dasharray: none; stroke-linecap: butt; stroke-linejoin: miter; stroke-miterlimit: 10; fill: rgb(240,240,240); fill-rule: nonzero; opacity: 1;" transform="  matrix(1 0 0 1 0 0) "/>
	<circle cx="73.732" cy="78.532" r="1.392" style="stroke: none; stroke-width: 1; stroke-dasharray: none; stroke-linecap: butt; stroke-linejoin: miter; stroke-miterlimit: 10; fill: rgb(240,240,240); fill-rule: nonzero; opacity: 1;" transform="  matrix(1 0 0 1 0 0) "/>
	<circle cx="65.55199999999999" cy="80.702" r="1.392" style="stroke: none; stroke-width: 1; stroke-dasharray: none; stroke-linecap: butt; stroke-linejoin: miter; stroke-miterlimit: 10; fill: rgb(240,240,240); fill-rule: nonzero; opacity: 1;" transform="  matrix(1 0 0 1 0 0) "/>
	<circle cx="62.682" cy="74.362" r="1.392" style="stroke: none; stroke-width: 1; stroke-dasharray: none; stroke-linecap: butt; stroke-linejoin: miter; stroke-miterlimit: 10; fill: rgb(240,240,240); fill-rule: nonzero; opacity: 1;" transform="  matrix(1 0 0 1 0 0) "/>
	<path d="M 38.972 57.296 c -1.799 0 -3.713 -0.378 -5.734 -1.136 l 0.351 -0.936 c 5.291 1.982 9.594 1.257 13.152 -2.215 l 0.699 0.715 C 45.001 56.103 42.166 57.296 38.972 57.296 z" style="stroke: none; stroke-width: 1; stroke-dasharray: none; stroke-linecap: butt; stroke-linejoin: miter; stroke-miterlimit: 10; fill: rgb(29,29,27); fill-rule: nonzero; opacity: 1;" transform=" matrix(1 0 0 1 0 0) " stroke-linecap="round" />
</g>
</svg>